<?xml version="1.0" encoding="UTF-8"?>
<svg width="31px" height="31px" viewBox="0 0 31 31" version="1.1" xmlns="http://www.w3.org/2000/svg" xmlns:xlink="http://www.w3.org/1999/xlink">
    <!-- Generator: Sketch 50.2 (55047) - http://www.bohemiancoding.com/sketch -->
    <title>Group</title>
    <desc>Created with Sketch.</desc>
    <defs></defs>
    <g id="Page-1" stroke="none" stroke-width="1" fill="none" fill-rule="evenodd">
        <g id="Artboard-Copy-2" transform="translate(-478.000000, -126.000000)">
            <g id="Group" transform="translate(478.000000, 126.000000)">
                <rect id="Rectangle" fill="#FCCE3E" x="0" y="0" width="31" height="31"></rect>
                <path d="M15.3764261,6 C11.4480256,6 8.25285222,9.19515012 8.25285222,13.1235739 C8.25285222,16.9494107 14.8103432,24.5440866 15.0914832,24.8670127 C15.1636696,24.950608 15.2662565,25 15.3764261,25 C15.4866189,25 15.5929855,24.950608 15.665172,24.8670127 C15.9425091,24.5440866 22.5,16.9494107 22.5,13.1235739 C22.5,9.19515016 19.3048499,6 15.3764261,6 Z M18.91732,13.1235739 C18.91732,15.0611767 17.3520352,16.6454762 15.4106294,16.6644678 L15.3764261,16.6644678 C14.4456078,16.6644678 13.5679844,16.3035354 12.8993146,15.6500774 C12.223062,14.9852105 11.8469411,14.0999812 11.8393352,13.1577772 C11.8203436,11.2049626 13.3932343,9.60167151 15.3460257,9.58267995 C16.280647,9.58267995 17.1810649,9.93600644 17.8573406,10.5970704 C18.5335932,11.2619373 18.9097142,12.1471665 18.9173201,13.0893705 L18.9173201,13.1235739 Z" id="Shape" fill="#FFFFFF" fill-rule="nonzero"></path>
            </g>
        </g>
    </g>
</svg>